<svg width="256" height="262" viewBox="0 0 256 262" xmlns="http://www.w3.org/2000/svg">
  <path d="M255.9 133.5c0-8.9-.7-17.3-2-25.5H130v48.3h70.7c-3 16-12.1 29.5-25.8 38.6v31.8h41.8c24.5-22.6 38.6-55.9 38.6-93.2z" fill="#4285F4"/>
  <path d="M130 261c34.8 0 63.9-11.5 85.2-31.4l-41.8-31.8c-11.6 7.8-26.4 12.5-43.4 12.5-33.4 0-61.7-22.5-71.8-52.7H15.4v33.1C36.5 232.6 80.1 261 130 261z" fill="#34A853"/>
  <path d="M58.2 157.6c-2.6-7.8-4.1-16.1-4.1-24.6s1.5-16.8 4.1-24.6V75.3H15.4C5.6 94.4 0 116.3 0 133c0 16.6 5.6 38.6 15.4 57.7l42.8-33.1z" fill="#FBBC05"/>
  <path d="M130 51.4c18.9 0 35.7 6.5 49 19.2l36.7-36.7C193.9 13.4 164.8 1 130 1 80.1 1 36.5 29.4 15.4 75.3l42.8 33.1c10.1-30.2 38.4-52.7 71.8-52.7z" fill="#EA4335"/>
</svg>
